{
    "asset" : {
        "generator" : "Khronos glTF Blender I/O v3.3.27",
        "version" : "2.0"
    },
    "scene" : 0,
    "scenes" : [
        {
            "name" : "Scene",
            "nodes" : [
                0
            ]
        }
    ],
    "nodes" : [
        {
            "mesh" : 0,
            "name" : "ferris_wheel"
        }
    ],
    "materials" : [
        {
            "name" : "_cabin_green",
            "pbrMetallicRoughness" : {
                "baseColorTexture" : {
                    "index" : 0
                },
                "metallicFactor" : 0,
                "roughnessFactor" : 0.9039215445518494
            }
        },
        {
            "name" : "ferris_wheel_white",
            "pbrMetallicRoughness" : {
                "baseColorTexture" : {
                    "index" : 1
                },
                "metallicFactor" : 0,
                "roughnessFactor" : 0.9039215445518494
            }
        },
        {
            "name" : "ferris_wheel_red",
            "pbrMetallicRoughness" : {
                "baseColorTexture" : {
                    "index" : 2
                },
                "metallicFactor" : 0,
                "roughnessFactor" : 0.9039215445518494
            }
        },
        {
            "name" : "ferris_wheel_yellow",
            "pbrMetallicRoughness" : {
                "baseColorTexture" : {
                    "index" : 3
                },
                "metallicFactor" : 0,
                "roughnessFactor" : 0.9039215445518494
            }
        },
        {
            "name" : "ferris_wheel_legs_red",
            "pbrMetallicRoughness" : {
                "baseColorTexture" : {
                    "index" : 4
                },
                "metallicFactor" : 0,
                "roughnessFactor" : 0.9039215445518494
            }
        },
        {
            "name" : "ferris_wheel_blue",
            "pbrMetallicRoughness" : {
                "baseColorTexture" : {
                    "index" : 5
                },
                "metallicFactor" : 0,
                "roughnessFactor" : 0.9039215445518494
            }
        },
        {
            "name" : "ferris_wheel_orange",
            "pbrMetallicRoughness" : {
                "baseColorTexture" : {
                    "index" : 6
                },
                "metallicFactor" : 0,
                "roughnessFactor" : 0.9039215445518494
            }
        },
        {
            "name" : "cabin_red",
            "pbrMetallicRoughness" : {
                "baseColorTexture" : {
                    "index" : 7
                },
                "metallicFactor" : 0,
                "roughnessFactor" : 0.9039215445518494
            }
        },
        {
            "name" : "cabin_blue",
            "pbrMetallicRoughness" : {
                "baseColorTexture" : {
                    "index" : 8
                },
                "metallicFactor" : 0,
                "roughnessFactor" : 0.9039215445518494
            }
        },
        {
            "name" : "cabin_orange",
            "pbrMetallicRoughness" : {
                "baseColorTexture" : {
                    "index" : 9
                },
                "metallicFactor" : 0,
                "roughnessFactor" : 0.9039215445518494
            }
        }
    ],
    "meshes" : [
        {
            "name" : "ferris_wheel-Mesh",
            "primitives" : [
                {
                    "attributes" : {
                        "POSITION" : 0,
                        "NORMAL" : 1,
                        "TEXCOORD_0" : 2
                    },
                    "indices" : 3,
                    "material" : 0
                },
                {
                    "attributes" : {
                        "POSITION" : 4,
                        "NORMAL" : 5,
                        "TEXCOORD_0" : 6
                    },
                    "indices" : 7,
                    "material" : 1
                },
                {
                    "attributes" : {
                        "POSITION" : 8,
                        "NORMAL" : 9,
                        "TEXCOORD_0" : 10
                    },
                    "indices" : 11,
                    "material" : 2
                },
                {
                    "attributes" : {
                        "POSITION" : 12,
                        "NORMAL" : 13,
                        "TEXCOORD_0" : 14
                    },
                    "indices" : 15,
                    "material" : 3
                },
                {
                    "attributes" : {
                        "POSITION" : 16,
                        "NORMAL" : 17,
                        "TEXCOORD_0" : 18
                    },
                    "indices" : 19,
                    "material" : 4
                },
                {
                    "attributes" : {
                        "POSITION" : 20,
                        "NORMAL" : 21,
                        "TEXCOORD_0" : 22
                    },
                    "indices" : 23,
                    "material" : 5
                },
                {
                    "attributes" : {
                        "POSITION" : 24,
                        "NORMAL" : 25,
                        "TEXCOORD_0" : 26
                    },
                    "indices" : 27,
                    "material" : 6
                },
                {
                    "attributes" : {
                        "POSITION" : 28,
                        "NORMAL" : 29,
                        "TEXCOORD_0" : 30
                    },
                    "indices" : 31,
                    "material" : 7
                },
                {
                    "attributes" : {
                        "POSITION" : 32,
                        "NORMAL" : 33,
                        "TEXCOORD_0" : 34
                    },
                    "indices" : 35,
                    "material" : 8
                },
                {
                    "attributes" : {
                        "POSITION" : 36,
                        "NORMAL" : 37,
                        "TEXCOORD_0" : 38
                    },
                    "indices" : 39,
                    "material" : 9
                }
            ]
        }
    ],
    "textures" : [
        {
            "sampler" : 0,
            "source" : 0
        },
        {
            "sampler" : 0,
            "source" : 0
        },
        {
            "sampler" : 0,
            "source" : 0
        },
        {
            "sampler" : 0,
            "source" : 0
        },
        {
            "sampler" : 0,
            "source" : 0
        },
        {
            "sampler" : 0,
            "source" : 0
        },
        {
            "sampler" : 0,
            "source" : 0
        },
        {
            "sampler" : 0,
            "source" : 0
        },
        {
            "sampler" : 0,
            "source" : 0
        },
        {
            "sampler" : 0,
            "source" : 0
        }
    ],
    "images" : [
        {
            "bufferView" : 4,
            "mimeType" : "image/png",
            "name" : "PUSHILIN_ferris_wheel"
        }
    ],
    "accessors" : [
        {
            "bufferView" : 0,
            "componentType" : 5126,
            "count" : 1122,
            "max" : [
                0.9824659824371338,
                2.2639217376708984,
                0.11824599653482437
            ],
            "min" : [
                -0.9945819973945618,
                0.5301986932754517,
                -0.11631400138139725
            ],
            "type" : "VEC3"
        },
        {
            "bufferView" : 1,
            "componentType" : 5126,
            "count" : 1122,
            "type" : "VEC3"
        },
        {
            "bufferView" : 2,
            "componentType" : 5126,
            "count" : 1122,
            "type" : "VEC2"
        },
        {
            "bufferView" : 3,
            "componentType" : 5123,
            "count" : 1332,
            "type" : "SCALAR"
        },
        {
            "bufferView" : 5,
            "componentType" : 5126,
            "count" : 864,
            "max" : [
                0.9497249722480774,
                2.2038686275482178,
                0.1520960032939911
            ],
            "min" : [
                -0.9488250017166138,
                0.3053186535835266,
                -0.1474130004644394
            ],
            "type" : "VEC3"
        },
        {
            "bufferView" : 6,
            "componentType" : 5126,
            "count" : 864,
            "type" : "VEC3"
        },
        {
            "bufferView" : 7,
            "componentType" : 5126,
            "count" : 864,
            "type" : "VEC2"
        },
        {
            "bufferView" : 8,
            "componentType" : 5123,
            "count" : 864,
            "type" : "SCALAR"
        },
        {
            "bufferView" : 9,
            "componentType" : 5126,
            "count" : 768,
            "max" : [
                0.9497249722480774,
                2.2038686275482178,
                0.15735399723052979
            ],
            "min" : [
                -0.9488250017166138,
                0.3053186535835266,
                -0.1526709944009781
            ],
            "type" : "VEC3"
        },
        {
            "bufferView" : 10,
            "componentType" : 5126,
            "count" : 768,
            "type" : "VEC3"
        },
        {
            "bufferView" : 11,
            "componentType" : 5126,
            "count" : 768,
            "type" : "VEC2"
        },
        {
            "bufferView" : 12,
            "componentType" : 5123,
            "count" : 1152,
            "type" : "SCALAR"
        },
        {
            "bufferView" : 13,
            "componentType" : 5126,
            "count" : 574,
            "max" : [
                0.7388150095939636,
                1.992958664894104,
                0.15735399723052979
            ],
            "min" : [
                -0.7379159927368164,
                0.516227662563324,
                -0.1526709944009781
            ],
            "type" : "VEC3"
        },
        {
            "bufferView" : 14,
            "componentType" : 5126,
            "count" : 574,
            "type" : "VEC3"
        },
        {
            "bufferView" : 15,
            "componentType" : 5126,
            "count" : 574,
            "type" : "VEC2"
        },
        {
            "bufferView" : 16,
            "componentType" : 5123,
            "count" : 576,
            "type" : "SCALAR"
        },
        {
            "bufferView" : 17,
            "componentType" : 5126,
            "count" : 84,
            "max" : [
                0.9519760012626648,
                1.2545936107635498,
                0.2847430109977722
            ],
            "min" : [
                -0.9510759711265564,
                0.004058718681335449,
                -0.2863140106201172
            ],
            "type" : "VEC3"
        },
        {
            "bufferView" : 18,
            "componentType" : 5126,
            "count" : 84,
            "type" : "VEC3"
        },
        {
            "bufferView" : 19,
            "componentType" : 5126,
            "count" : 84,
            "type" : "VEC2"
        },
        {
            "bufferView" : 20,
            "componentType" : 5123,
            "count" : 120,
            "type" : "SCALAR"
        },
        {
            "bufferView" : 21,
            "componentType" : 5126,
            "count" : 624,
            "max" : [
                0.9605919718742371,
                2.257265567779541,
                0.014897000044584274
            ],
            "min" : [
                -0.9540159702301025,
                0.06694269180297852,
                -0.013306000269949436
            ],
            "type" : "VEC3"
        },
        {
            "bufferView" : 22,
            "componentType" : 5126,
            "count" : 624,
            "type" : "VEC3"
        },
        {
            "bufferView" : 23,
            "componentType" : 5126,
            "count" : 624,
            "type" : "VEC2"
        },
        {
            "bufferView" : 24,
            "componentType" : 5123,
            "count" : 720,
            "type" : "SCALAR"
        },
        {
            "bufferView" : 25,
            "componentType" : 5126,
            "count" : 700,
            "max" : [
                0.08172699809074402,
                1.335871696472168,
                0.23902100324630737
            ],
            "min" : [
                -0.08082800358533859,
                1.1733156442642212,
                -0.24159500002861023
            ],
            "type" : "VEC3"
        },
        {
            "bufferView" : 26,
            "componentType" : 5126,
            "count" : 700,
            "type" : "VEC3"
        },
        {
            "bufferView" : 27,
            "componentType" : 5126,
            "count" : 700,
            "type" : "VEC2"
        },
        {
            "bufferView" : 28,
            "componentType" : 5123,
            "count" : 744,
            "type" : "SCALAR"
        },
        {
            "bufferView" : 29,
            "componentType" : 5126,
            "count" : 1130,
            "max" : [
                0.9785370230674744,
                1.7943556308746338,
                0.11824599653482437
            ],
            "min" : [
                -0.9863229990005493,
                0.0667266845703125,
                -0.11631400138139725
            ],
            "type" : "VEC3"
        },
        {
            "bufferView" : 30,
            "componentType" : 5126,
            "count" : 1130,
            "type" : "VEC3"
        },
        {
            "bufferView" : 31,
            "componentType" : 5126,
            "count" : 1130,
            "type" : "VEC2"
        },
        {
            "bufferView" : 32,
            "componentType" : 5123,
            "count" : 1332,
            "type" : "SCALAR"
        },
        {
            "bufferView" : 33,
            "componentType" : 5126,
            "count" : 1101,
            "max" : [
                1.126405954360962,
                2.1314706802368164,
                0.11824599653482437
            ],
            "min" : [
                -0.6495500206947327,
                0.17837166786193848,
                -0.11631400138139725
            ],
            "type" : "VEC3"
        },
        {
            "bufferView" : 34,
            "componentType" : 5126,
            "count" : 1101,
            "type" : "VEC3"
        },
        {
            "bufferView" : 35,
            "componentType" : 5126,
            "count" : 1101,
            "type" : "VEC2"
        },
        {
            "bufferView" : 36,
            "componentType" : 5123,
            "count" : 1332,
            "type" : "SCALAR"
        },
        {
            "bufferView" : 37,
            "componentType" : 5126,
            "count" : 1112,
            "max" : [
                0.6499750018119812,
                2.1226797103881836,
                0.11824599653482437
            ],
            "min" : [
                -1.119884967803955,
                0.18176865577697754,
                -0.11631400138139725
            ],
            "type" : "VEC3"
        },
        {
            "bufferView" : 38,
            "componentType" : 5126,
            "count" : 1112,
            "type" : "VEC3"
        },
        {
            "bufferView" : 39,
            "componentType" : 5126,
            "count" : 1112,
            "type" : "VEC2"
        },
        {
            "bufferView" : 40,
            "componentType" : 5123,
            "count" : 1332,
            "type" : "SCALAR"
        }
    ],
    "bufferViews" : [
        {
            "buffer" : 0,
            "byteLength" : 13464,
            "byteOffset" : 0,
            "target" : 34962
        },
        {
            "buffer" : 0,
            "byteLength" : 13464,
            "byteOffset" : 13464,
            "target" : 34962
        },
        {
            "buffer" : 0,
            "byteLength" : 8976,
            "byteOffset" : 26928,
            "target" : 34962
        },
        {
            "buffer" : 0,
            "byteLength" : 2664,
            "byteOffset" : 35904,
            "target" : 34963
        },
        {
            "buffer" : 0,
            "byteLength" : 308987,
            "byteOffset" : 38568
        },
        {
            "buffer" : 0,
            "byteLength" : 10368,
            "byteOffset" : 347556,
            "target" : 34962
        },
        {
            "buffer" : 0,
            "byteLength" : 10368,
            "byteOffset" : 357924,
            "target" : 34962
        },
        {
            "buffer" : 0,
            "byteLength" : 6912,
            "byteOffset" : 368292,
            "target" : 34962
        },
        {
            "buffer" : 0,
            "byteLength" : 1728,
            "byteOffset" : 375204,
            "target" : 34963
        },
        {
            "buffer" : 0,
            "byteLength" : 9216,
            "byteOffset" : 376932,
            "target" : 34962
        },
        {
            "buffer" : 0,
            "byteLength" : 9216,
            "byteOffset" : 386148,
            "target" : 34962
        },
        {
            "buffer" : 0,
            "byteLength" : 6144,
            "byteOffset" : 395364,
            "target" : 34962
        },
        {
            "buffer" : 0,
            "byteLength" : 2304,
            "byteOffset" : 401508,
            "target" : 34963
        },
        {
            "buffer" : 0,
            "byteLength" : 6888,
            "byteOffset" : 403812,
            "target" : 34962
        },
        {
            "buffer" : 0,
            "byteLength" : 6888,
            "byteOffset" : 410700,
            "target" : 34962
        },
        {
            "buffer" : 0,
            "byteLength" : 4592,
            "byteOffset" : 417588,
            "target" : 34962
        },
        {
            "buffer" : 0,
            "byteLength" : 1152,
            "byteOffset" : 422180,
            "target" : 34963
        },
        {
            "buffer" : 0,
            "byteLength" : 1008,
            "byteOffset" : 423332,
            "target" : 34962
        },
        {
            "buffer" : 0,
            "byteLength" : 1008,
            "byteOffset" : 424340,
            "target" : 34962
        },
        {
            "buffer" : 0,
            "byteLength" : 672,
            "byteOffset" : 425348,
            "target" : 34962
        },
        {
            "buffer" : 0,
            "byteLength" : 240,
            "byteOffset" : 426020,
            "target" : 34963
        },
        {
            "buffer" : 0,
            "byteLength" : 7488,
            "byteOffset" : 426260,
            "target" : 34962
        },
        {
            "buffer" : 0,
            "byteLength" : 7488,
            "byteOffset" : 433748,
            "target" : 34962
        },
        {
            "buffer" : 0,
            "byteLength" : 4992,
            "byteOffset" : 441236,
            "target" : 34962
        },
        {
            "buffer" : 0,
            "byteLength" : 1440,
            "byteOffset" : 446228,
            "target" : 34963
        },
        {
            "buffer" : 0,
            "byteLength" : 8400,
            "byteOffset" : 447668,
            "target" : 34962
        },
        {
            "buffer" : 0,
            "byteLength" : 8400,
            "byteOffset" : 456068,
            "target" : 34962
        },
        {
            "buffer" : 0,
            "byteLength" : 5600,
            "byteOffset" : 464468,
            "target" : 34962
        },
        {
            "buffer" : 0,
            "byteLength" : 1488,
            "byteOffset" : 470068,
            "target" : 34963
        },
        {
            "buffer" : 0,
            "byteLength" : 13560,
            "byteOffset" : 471556,
            "target" : 34962
        },
        {
            "buffer" : 0,
            "byteLength" : 13560,
            "byteOffset" : 485116,
            "target" : 34962
        },
        {
            "buffer" : 0,
            "byteLength" : 9040,
            "byteOffset" : 498676,
            "target" : 34962
        },
        {
            "buffer" : 0,
            "byteLength" : 2664,
            "byteOffset" : 507716,
            "target" : 34963
        },
        {
            "buffer" : 0,
            "byteLength" : 13212,
            "byteOffset" : 510380,
            "target" : 34962
        },
        {
            "buffer" : 0,
            "byteLength" : 13212,
            "byteOffset" : 523592,
            "target" : 34962
        },
        {
            "buffer" : 0,
            "byteLength" : 8808,
            "byteOffset" : 536804,
            "target" : 34962
        },
        {
            "buffer" : 0,
            "byteLength" : 2664,
            "byteOffset" : 545612,
            "target" : 34963
        },
        {
            "buffer" : 0,
            "byteLength" : 13344,
            "byteOffset" : 548276,
            "target" : 34962
        },
        {
            "buffer" : 0,
            "byteLength" : 13344,
            "byteOffset" : 561620,
            "target" : 34962
        },
        {
            "buffer" : 0,
            "byteLength" : 8896,
            "byteOffset" : 574964,
            "target" : 34962
        },
        {
            "buffer" : 0,
            "byteLength" : 2664,
            "byteOffset" : 583860,
            "target" : 34963
        }
    ],
    "samplers" : [
        {
            "magFilter" : 9729,
            "minFilter" : 9987
        }
    ],
    "buffers" : [
        {
            "byteLength" : 586524,
            "uri" : "data:application/octet-stream;base64,"
        }
    ]
}
