{
    "asset" : {
        "generator" : "Khronos glTF Blender I/O v1.5.17",
        "version" : "2.0"
    },
    "scene" : 0,
    "scenes" : [
        {
            "name" : "Scene",
            "nodes" : [
                0
            ]
        }
    ],
    "nodes" : [
        {
            "mesh" : 0,
            "name" : "ball"
        }
    ],
    "materials" : [
        {
            "doubleSided" : true,
            "name" : "White.008",
            "pbrMetallicRoughness" : {
                "baseColorFactor" : [
                    0.799102783203125,
                    0.799102783203125,
                    0.799102783203125,
                    1
                ],
                "metallicFactor" : 0,
                "roughnessFactor" : 0.5
            }
        },
        {
            "doubleSided" : true,
            "name" : "Blue.004",
            "pbrMetallicRoughness" : {
                "baseColorFactor" : [
                    0.1268673837184906,
                    0.4590684771537781,
                    1,
                    1
                ],
                "metallicFactor" : 0,
                "roughnessFactor" : 0.20000000298023224
            }
        },
        {
            "doubleSided" : true,
            "name" : "Red.003",
            "pbrMetallicRoughness" : {
                "baseColorFactor" : [
                    1,
                    0.02505292184650898,
                    0.11802464723587036,
                    1
                ],
                "metallicFactor" : 0,
                "roughnessFactor" : 0.20000000298023224
            }
        },
        {
            "doubleSided" : true,
            "name" : "Yellow.012",
            "pbrMetallicRoughness" : {
                "baseColorFactor" : [
                    1,
                    0.5052202939987183,
                    0.017695415765047073,
                    1
                ],
                "metallicFactor" : 0,
                "roughnessFactor" : 0.20000000298023224
            }
        }
    ],
    "meshes" : [
        {
            "name" : "Sphere.000",
            "primitives" : [
                {
                    "attributes" : {
                        "POSITION" : 0,
                        "NORMAL" : 1,
                        "TEXCOORD_0" : 2
                    },
                    "indices" : 3,
                    "material" : 0
                },
                {
                    "attributes" : {
                        "POSITION" : 4,
                        "NORMAL" : 5,
                        "TEXCOORD_0" : 6
                    },
                    "indices" : 7,
                    "material" : 1
                },
                {
                    "attributes" : {
                        "POSITION" : 8,
                        "NORMAL" : 9,
                        "TEXCOORD_0" : 10
                    },
                    "indices" : 11,
                    "material" : 2
                },
                {
                    "attributes" : {
                        "POSITION" : 12,
                        "NORMAL" : 13,
                        "TEXCOORD_0" : 14
                    },
                    "indices" : 15,
                    "material" : 3
                }
            ]
        }
    ],
    "accessors" : [
        {
            "bufferView" : 0,
            "componentType" : 5126,
            "count" : 230,
            "max" : [
                1,
                1,
                0.9848077893257141
            ],
            "min" : [
                -0.9999994039535522,
                -1,
                -0.8660252690315247
            ],
            "type" : "VEC3"
        },
        {
            "bufferView" : 1,
            "componentType" : 5126,
            "count" : 230,
            "type" : "VEC3"
        },
        {
            "bufferView" : 2,
            "componentType" : 5126,
            "count" : 230,
            "type" : "VEC2"
        },
        {
            "bufferView" : 3,
            "componentType" : 5123,
            "count" : 864,
            "type" : "SCALAR"
        },
        {
            "bufferView" : 4,
            "componentType" : 5126,
            "count" : 60,
            "max" : [
                -0.09754519164562225,
                0.9807852506637573,
                0.8660253286361694
            ],
            "min" : [
                -0.9999994039535522,
                -0.9807853102684021,
                9.325032834794911e-08
            ],
            "type" : "VEC3"
        },
        {
            "bufferView" : 5,
            "componentType" : 5126,
            "count" : 60,
            "type" : "VEC3"
        },
        {
            "bufferView" : 6,
            "componentType" : 5126,
            "count" : 60,
            "type" : "VEC2"
        },
        {
            "bufferView" : 7,
            "componentType" : 5123,
            "count" : 252,
            "type" : "SCALAR"
        },
        {
            "bufferView" : 8,
            "componentType" : 5126,
            "count" : 60,
            "max" : [
                1,
                0.9807852506637573,
                0.8660255670547485
            ],
            "min" : [
                0.09754516184329987,
                -0.9807853102684021,
                1.728700169678632e-07
            ],
            "type" : "VEC3"
        },
        {
            "bufferView" : 9,
            "componentType" : 5126,
            "count" : 60,
            "type" : "VEC3"
        },
        {
            "bufferView" : 10,
            "componentType" : 5126,
            "count" : 60,
            "type" : "VEC2"
        },
        {
            "bufferView" : 11,
            "componentType" : 5123,
            "count" : 252,
            "type" : "SCALAR"
        },
        {
            "bufferView" : 12,
            "componentType" : 5126,
            "count" : 60,
            "max" : [
                0.5000001192092896,
                0.9807853102684021,
                -0.1689528226852417
            ],
            "min" : [
                -0.49999964237213135,
                -0.9807853102684021,
                -0.9848077297210693
            ],
            "type" : "VEC3"
        },
        {
            "bufferView" : 13,
            "componentType" : 5126,
            "count" : 60,
            "type" : "VEC3"
        },
        {
            "bufferView" : 14,
            "componentType" : 5126,
            "count" : 60,
            "type" : "VEC2"
        },
        {
            "bufferView" : 15,
            "componentType" : 5123,
            "count" : 252,
            "type" : "SCALAR"
        }
    ],
    "bufferViews" : [
        {
            "buffer" : 0,
            "byteLength" : 2760,
            "byteOffset" : 0
        },
        {
            "buffer" : 0,
            "byteLength" : 2760,
            "byteOffset" : 2760
        },
        {
            "buffer" : 0,
            "byteLength" : 1840,
            "byteOffset" : 5520
        },
        {
            "buffer" : 0,
            "byteLength" : 1728,
            "byteOffset" : 7360
        },
        {
            "buffer" : 0,
            "byteLength" : 720,
            "byteOffset" : 9088
        },
        {
            "buffer" : 0,
            "byteLength" : 720,
            "byteOffset" : 9808
        },
        {
            "buffer" : 0,
            "byteLength" : 480,
            "byteOffset" : 10528
        },
        {
            "buffer" : 0,
            "byteLength" : 504,
            "byteOffset" : 11008
        },
        {
            "buffer" : 0,
            "byteLength" : 720,
            "byteOffset" : 11512
        },
        {
            "buffer" : 0,
            "byteLength" : 720,
            "byteOffset" : 12232
        },
        {
            "buffer" : 0,
            "byteLength" : 480,
            "byteOffset" : 12952
        },
        {
            "buffer" : 0,
            "byteLength" : 504,
            "byteOffset" : 13432
        },
        {
            "buffer" : 0,
            "byteLength" : 720,
            "byteOffset" : 13936
        },
        {
            "buffer" : 0,
            "byteLength" : 720,
            "byteOffset" : 14656
        },
        {
            "buffer" : 0,
            "byteLength" : 480,
            "byteOffset" : 15376
        },
        {
            "buffer" : 0,
            "byteLength" : 504,
            "byteOffset" : 15856
        }
    ],
    "buffers" : [
        {
            "byteLength" : 16360,
            "uri" : "data:application/octet-stream;base64,"
        }
    ]
}
