{
    "asset" : {
        "generator" : "Khronos glTF Blender I/O v1.5.17",
        "version" : "2.0"
    },
    "scene" : 0,
    "scenes" : [
        {
            "name" : "Scene",
            "nodes" : [
                0
            ]
        }
    ],
    "nodes" : [
        {
            "mesh" : 0,
            "name" : "fenceSingle"
        }
    ],
    "materials" : [
        {
            "name" : "Black.011",
            "pbrMetallicRoughness" : {
                "baseColorFactor" : [
                    0.019794002175331116,
                    0.03207586705684662,
                    0.037408243864774704,
                    1
                ],
                "metallicFactor" : 0,
                "roughnessFactor" : 0.20000000298023224
            }
        },
        {
            "name" : "Stone.003",
            "pbrMetallicRoughness" : {
                "baseColorFactor" : [
                    0.1923278123140335,
                    0.22819341719150543,
                    0.24619518220424652,
                    1
                ],
                "metallicFactor" : 0,
                "roughnessFactor" : 0.30000001192092896
            }
        }
    ],
    "meshes" : [
        {
            "name" : "Cylinder.095",
            "primitives" : [
                {
                    "attributes" : {
                        "POSITION" : 0,
                        "NORMAL" : 1,
                        "TEXCOORD_0" : 2
                    },
                    "indices" : 3,
                    "material" : 0
                },
                {
                    "attributes" : {
                        "POSITION" : 4,
                        "NORMAL" : 5,
                        "TEXCOORD_0" : 6
                    },
                    "indices" : 7,
                    "material" : 1
                }
            ]
        }
    ],
    "accessors" : [
        {
            "bufferView" : 0,
            "componentType" : 5126,
            "count" : 318,
            "max" : [
                1,
                1.4000000953674316,
                0.05651960149407387
            ],
            "min" : [
                -1,
                0,
                -0.05651960149407387
            ],
            "type" : "VEC3"
        },
        {
            "bufferView" : 1,
            "componentType" : 5126,
            "count" : 318,
            "type" : "VEC3"
        },
        {
            "bufferView" : 2,
            "componentType" : 5126,
            "count" : 318,
            "type" : "VEC2"
        },
        {
            "bufferView" : 3,
            "componentType" : 5123,
            "count" : 630,
            "type" : "SCALAR"
        },
        {
            "bufferView" : 4,
            "componentType" : 5126,
            "count" : 776,
            "max" : [
                1.1999998092651367,
                1.3799011707305908,
                0.19999998807907104
            ],
            "min" : [
                -1.2000000476837158,
                0,
                -0.19999998807907104
            ],
            "type" : "VEC3"
        },
        {
            "bufferView" : 5,
            "componentType" : 5126,
            "count" : 776,
            "type" : "VEC3"
        },
        {
            "bufferView" : 6,
            "componentType" : 5126,
            "count" : 776,
            "type" : "VEC2"
        },
        {
            "bufferView" : 7,
            "componentType" : 5123,
            "count" : 852,
            "type" : "SCALAR"
        }
    ],
    "bufferViews" : [
        {
            "buffer" : 0,
            "byteLength" : 3816,
            "byteOffset" : 0
        },
        {
            "buffer" : 0,
            "byteLength" : 3816,
            "byteOffset" : 3816
        },
        {
            "buffer" : 0,
            "byteLength" : 2544,
            "byteOffset" : 7632
        },
        {
            "buffer" : 0,
            "byteLength" : 1260,
            "byteOffset" : 10176
        },
        {
            "buffer" : 0,
            "byteLength" : 9312,
            "byteOffset" : 11436
        },
        {
            "buffer" : 0,
            "byteLength" : 9312,
            "byteOffset" : 20748
        },
        {
            "buffer" : 0,
            "byteLength" : 6208,
            "byteOffset" : 30060
        },
        {
            "buffer" : 0,
            "byteLength" : 1704,
            "byteOffset" : 36268
        }
    ],
    "buffers" : [
        {
            "byteLength" : 37972,
            "uri" : "data:application/octet-stream;base64,"
        }
    ]
}
